<?xml version="1.0" standalone="no"?>
<!DOCTYPE svg PUBLIC "-//W3C//DTD SVG 20010904//EN"
 "http://www.w3.org/TR/2001/REC-SVG-20010904/DTD/svg10.dtd">
<svg version="1.0" xmlns="http://www.w3.org/2000/svg"
 width="700.000000pt" height="700.000000pt" viewBox="0 0 700.000000 700.000000"
 preserveAspectRatio="xMidYMid meet">
<metadata>
Created by potrace 1.14, written by Peter Selinger 2001-2017
</metadata>
<g transform="translate(0.000000,700.000000) scale(0.100000,-0.100000)"
fill="#000000" stroke="none">
<path d="M697 6989 c-331 -48 -557 -254 -664 -604 l-28 -90 -3 -2893 -2 -2892
2892 3 c1591 1 2907 6 2923 10 17 5 57 15 90 23 67 17 204 81 250 116 68 53
154 149 198 221 25 42 44 77 42 77 -3 0 1 10 9 23 20 32 54 141 71 227 12 65
14 474 15 2933 l0 2857 -2867 -1 c-1578 -1 -2894 -5 -2926 -10z m484 -2082
c117 -74 353 -157 493 -173 28 -3 68 -9 88 -14 41 -9 407 -5 453 4 17 3 65 13
109 22 186 36 368 113 494 210 l73 55 -6 -57 c-24 -221 -176 -428 -405 -554
-295 -162 -698 -167 -1005 -12 -228 114 -399 325 -430 532 -4 25 -8 52 -10 60
-5 30 7 29 48 -4 23 -18 67 -50 98 -69z m2608 62 c41 -39 179 -117 265 -150
83 -32 232 -73 302 -83 21 -3 68 -10 104 -15 63 -9 395 -7 435 2 11 3 40 8 65
11 203 28 430 119 560 225 61 51 69 54 65 34 -2 -10 -9 -47 -15 -83 -49 -266
-315 -516 -640 -600 -143 -38 -319 -46 -465 -21 -200 33 -390 127 -521 256
-123 122 -182 242 -210 423 -6 41 -5 43 12 34 11 -6 30 -21 43 -33z m-1811
-1910 c20 -7 79 -36 130 -66 51 -29 96 -53 100 -53 4 0 29 -11 57 -24 194 -93
453 -162 720 -193 86 -10 510 -10 585 0 30 4 75 9 100 13 231 29 527 122 709
221 117 64 141 74 196 79 111 11 232 -51 276 -142 49 -103 18 -251 -71 -327
-21 -18 -94 -60 -162 -94 -152 -75 -168 -82 -293 -126 -246 -86 -438 -133
-710 -172 -22 -3 -155 -8 -295 -9 -206 -3 -283 0 -400 15 -135 17 -355 58
-425 79 -171 50 -226 68 -325 107 -174 68 -416 192 -462 236 -137 133 -95 373
77 447 49 21 144 25 193 9z"/>
</g>
</svg>
